<svg width="507" height="142" viewBox="0 0 507 142" fill="none" xmlns="http://www.w3.org/2000/svg">
<g clip-path="url(#clip0_763_65)">
<path d="M412.1 66.7L412.8 67.7L414 69.2L415.5 71.1L417.3 73.4C418 74.2 418.7 75.1 419.4 75.9C420.1 76.7 420.9 77.7 421.7 78.6C422.5 79.5 423.3 80.4 424.2 81.3C425.1 82.2 425.9 83.1 426.8 84C427.7 84.9 428.6 85.7 429.5 86.6C430.4 87.5 431.3 88.2 432.2 88.9C433.1 89.6 434 90.3 434.9 90.9C435.7 91.5 436.6 92 437.5 92.5C438.3 92.9 439.1 93.3 440 93.6C440.9 93.9 441.9 94.1 442.8 94.2H442.9C442.2 94.2 441.4 94.3 440.7 94.5C439.9 94.7 439.1 95 438.3 95.4C437.4 95.8 436.6 96.3 435.8 96.8C434.9 97.4 434 98 433.2 98.6C432.4 99.2 431.4 100 430.6 100.8C429.8 101.6 428.8 102.4 428 103.2L425.4 105.8C424.5 106.7 423.7 107.6 422.9 108.4C422.1 109.2 421.3 110.1 420.6 111C419.9 111.9 419.1 112.7 418.4 113.5C417.7 114.3 417.1 115.1 416.5 115.8C415.9 116.5 415.4 117.2 414.8 117.9L413.5 119.6L412.5 120.9L411.9 121.6L411.8 121.8L431.2 141.1L431.5 140.8L432.5 140.1L434 139L435.9 137.5L438.2 135.7C439 135 439.9 134.3 440.7 133.6C441.5 132.9 442.5 132.1 443.4 131.3C444.3 130.5 445.2 129.7 446.1 128.8C447 128 447.9 127.1 448.8 126.2C449.7 125.3 450.5 124.4 451.3 123.5C452.1 122.6 452.9 121.7 453.6 120.8C454.3 119.9 455 119 455.6 118.1C456.2 117.3 456.7 116.4 457.2 115.5C457.6 114.7 458 113.9 458.3 113C458.6 112.1 458.8 111.1 458.9 110.2V110.1C458.9 110.8 459 111.6 459.2 112.3C459.4 113.1 459.7 113.9 460.1 114.7C460.5 115.6 461 116.4 461.5 117.2C462.1 118.1 462.7 118.9 463.3 119.8C463.9 120.7 464.7 121.6 465.5 122.4C466.3 123.2 467.1 124.2 467.9 125L470.5 127.6C471.4 128.4 472.3 129.3 473.1 130.1C473.9 130.9 474.8 131.7 475.7 132.5C476.6 133.3 477.4 133.9 478.2 134.7C479 135.5 479.7 136 480.5 136.6L482.6 138.2C483.2 138.6 483.7 139.1 484.3 139.5L485.6 140.5L486.4 141.1L486.6 141.2L506 121.9L505.7 121.6L505 120.6L503.9 119.1L502.4 117.2L500.6 114.9C499.9 114.1 499.2 113.2 498.5 112.4C497.8 111.6 497 110.6 496.2 109.7C495.4 108.8 494.6 107.9 493.7 107C492.8 106.1 492 105.2 491.1 104.3C490.2 103.4 489.3 102.6 488.4 101.7C487.5 100.8 486.6 100.1 485.7 99.4C484.8 98.7 483.9 98 483 97.4C482.2 96.8 481.3 96.3 480.4 95.8C479.6 95.3 478.8 95 477.9 94.7C477 94.4 476 94.2 475.1 94.1H475C475.7 94.1 476.5 94 477.2 93.8C478 93.6 478.8 93.3 479.6 92.9C480.5 92.5 481.3 92 482.1 91.5C483 90.9 483.9 90.3 484.7 89.7C485.5 89.1 486.5 88.3 487.3 87.5C488.1 86.7 489.1 85.9 489.9 85.1L492.5 82.5C493.4 81.6 494.2 80.7 495 79.9C495.8 79.1 496.6 78.2 497.3 77.3C498 76.4 498.8 75.6 499.5 74.8C500.2 74 500.8 73.2 501.4 72.5L503.1 70.4C503.5 69.8 504 69.3 504.4 68.7C504.7 68.3 505 67.9 505.4 67.4L506 66.6L506.1 66.4L486.7 47.1L486.4 47.4L485.4 48.1C484.9 48.5 484.4 48.9 483.9 49.2C483.3 49.7 482.6 50.2 482 50.7L479.7 52.5C478.9 53.2 478 53.9 477.2 54.6C476.4 55.3 475.4 56.1 474.5 56.9C473.6 57.7 472.7 58.5 471.8 59.4C470.9 60.3 470 61.1 469.1 62C468.2 62.9 467.4 63.8 466.6 64.7C465.8 65.6 465 66.5 464.3 67.4C463.6 68.3 462.9 69.2 462.3 70.1C461.7 70.9 461.2 71.8 460.7 72.7C460.3 73.5 459.9 74.3 459.6 75.2C459.3 76.1 459.1 77.1 459 78V78.1C459 77.4 458.9 76.6 458.7 75.9C458.5 75.1 458.2 74.3 457.8 73.5C457.4 72.6 456.9 71.8 456.4 71C455.8 70.1 455.2 69.2 454.6 68.4C454 67.6 453.2 66.6 452.4 65.8C451.6 65 450.8 64 450 63.2L447.4 60.6C446.5 59.7 445.7 58.9 444.8 58.1L442.2 55.8L439.7 53.6C438.9 53 438.2 52.3 437.4 51.7L435.3 50L433.6 48.7L432.3 47.7L431.5 47.1L431.3 47L412.1 66.7ZM27.9 101.2C30.9 113.5 40.9 119.2 53.4 119.2C63.2 119.2 73.9 115.8 83.2 109.4V132.4C74.6 137.8 61.4 140.6 49.8 140.6C20.9 140.6 0 122.3 0 94.3C0 65.8 21.8 47.3 46.1 47.3C67.7 47.3 88.1 61.8 88.1 91.8C88.1 95 87.9 98.1 87.6 101.2H27.9ZM63 83.8C61.4 74.2 54.5 68.4 45.7 68.4C37.3 68.4 30 73.7 27.7 83.8H63ZM105.7 0H132.8V53.3L133.2 53.5C139.7 49.4 147.2 47.3 154.8 47.3C176.6 47.3 196.2 64.5 196.2 92.3C196.2 120.6 176 140.6 148.7 140.6C141.2 140.6 133.8 139 126.9 136.1L105.7 139.7V0ZM146.8 118.3C161.4 118.3 168.9 106.7 168.9 93.6C168.9 80.5 161.2 70.4 147.8 70.4C142.5 70.5 137.3 72 132.8 74.7V114.8C137.1 117.1 141.9 118.3 146.8 118.3ZM263.2 133.2C257.5 137.4 248.7 140.6 238.7 140.6C231.2 140.6 224.1 138.8 218.3 134.8C211.9 130.3 207.9 123.2 207.9 114C207.9 104.2 212.4 96.8 218.6 92.4C225.4 87.6 234.1 86 243.2 86C248.3 86 253.4 86.5 258.4 87.6V84.2C258.4 79.8 257 76.6 255 74.8C252.5 72.5 247.9 71 241.4 71C231.6 71 222.7 74.3 215.7 78.1V54.2C225.3 49.6 235.8 47.2 246.4 47.3C258.2 47.3 268.7 50 275.7 55.8C282.3 61.3 285.5 69.2 285.5 80.5V110.8C285.5 115 287.1 117.9 290.9 117.9C292.5 117.9 294 117.5 295.4 116.8V137.5C292.4 139.1 287.5 140.2 282.4 140.2C275.3 140.2 268.3 138.2 263.5 133.1H263.2V133.2ZM258.5 103.6C255.4 102.7 252.1 102.3 248.9 102.3C241.9 102.3 235 104.5 235 111.4C235 117.2 240 120.3 246.3 120.3C250.7 120.2 254.9 119 258.6 116.7V103.6H258.5ZM309.6 0H336.7V53.3L337.1 53.5C343.6 49.4 351.1 47.3 358.7 47.3C380.5 47.3 400.1 64.5 400.1 92.3C400.1 120.6 379.9 140.6 352.6 140.6C345.1 140.6 337.7 139 330.8 136.1L309.6 139.7V0ZM350.6 118.3C365.2 118.3 372.7 106.7 372.7 93.6C372.7 80.5 365 70.4 351.6 70.4C346.3 70.5 341.1 72 336.6 74.7V114.8C341 117.1 345.8 118.3 350.6 118.3Z" fill="black"/>
</g>
<defs>
<clipPath id="clip0_763_65">
<rect width="506.1" height="141.2" fill="white"/>
</clipPath>
</defs>
</svg>
